<?xml version="1.0" encoding="utf-8"?>
<!-- Generator: Adobe Illustrator 27.5.0, SVG Export Plug-In . SVG Version: 6.00 Build 0)  -->
<svg version="1.1" id="Calque_1" xmlns="http://www.w3.org/2000/svg" xmlns:xlink="http://www.w3.org/1999/xlink" x="0px" y="0px"
	 viewBox="0 0 699.1 129.7" style="enable-background:new 0 0 699.1 129.7;" xml:space="preserve">
<style type="text/css">
	.st0{fill:#FBF0E7;}
</style>
<g id="Calque_2_00000152985897807600177000000001688252458879156127_">
	<g>
		<path class="st0" d="M0,0.6h50.8C78.4,0.6,95,20.2,95,43.3S78.8,85.1,50.4,85.1H27.8v44H0V0.6z M46.7,61.8
			c14,0,20.6-8.5,20.6-18.7c0-10.8-7.6-18.9-20.2-18.9H27.8v37.6H46.7z"/>
		<path class="st0" d="M233.7,128.5v0.6h-31.4l-27-46.1h-14.7v46.1h-27.8V0.6h51.8c27,0,45.2,17.6,45.2,41.2
			c0,17.2-10.4,31.2-27.4,37.6L233.7,128.5z M181.4,60.9c12.7,0,20.4-7.4,20.4-18.3c0-10.8-8.1-18.5-20.2-18.5h-21v36.8H181.4z"/>
		<path class="st0" d="M270.6,0.6h27.8v128.5h-27.8V0.6z"/>
		<path class="st0" d="M463.3,0.6V1l-61.2,128.7h-8.3L332.5,1.2V0.6h30.6l27.8,61c2.6,6.4,4.9,12.1,7.2,18.1
			c2.3-6.6,4.9-13,7.4-18.5l27.4-60.6H463.3z"/>
		<path class="st0" d="M593.6,128.5v0.6h-28.9l-8.9-20.2h-54.2l-8.9,20.2h-29.1v-0.6L524.4,0h8.3L593.6,128.5z M519.6,66.5L510,88.2
			h37.6l-9.8-21.7c-3-7.2-5.9-13.8-9.1-23.2C525.6,52.6,522.8,59.4,519.6,66.5z"/>
		<path class="st0" d="M699.1,26.1h-34.8v103h-27.8v-103h-34.8V0.6H699L699.1,26.1L699.1,26.1z"/>
	</g>
</g>
<g id="Calque_1_00000116945974982889198620000001776287298479303315_">
</g>
</svg>
